<?xml version="1.0" standalone="no"?>
<!DOCTYPE svg PUBLIC "-//W3C//DTD SVG 20010904//EN"
 "http://www.w3.org/TR/2001/REC-SVG-20010904/DTD/svg10.dtd">
<svg version="1.0" xmlns="http://www.w3.org/2000/svg"
 width="1080.000000pt" height="1080.000000pt" viewBox="0 0 1080.000000 1080.000000"
 preserveAspectRatio="xMidYMid meet">
<metadata>
Created by potrace 1.16, written by Peter Selinger 2001-2019
</metadata>
<g transform="translate(0.000000,1080.000000) scale(0.100000,-0.100000)"
fill="#6c5c94" stroke="none">
<path d="M3915 9936 c-464 -228 -684 -335 -880 -431 -115 -56 -327 -160 -470
-230 -143 -70 -327 -160 -410 -200 -82 -40 -301 -147 -485 -237 -184 -90 -417
-204 -517 -253 l-183 -89 0 -2808 0 -2808 188 -91 c103 -50 260 -127 350 -170
89 -44 236 -115 327 -159 91 -44 239 -116 330 -160 91 -44 238 -115 327 -159
90 -43 233 -112 318 -154 164 -79 245 -118 983 -476 92 -44 242 -118 335 -162
92 -45 241 -117 332 -161 91 -44 233 -113 315 -153 83 -40 239 -116 348 -169
109 -53 200 -96 202 -96 3 0 5 1655 5 3678 l0 3679 -222 103 c-123 57 -370
172 -550 257 -180 84 -332 153 -337 153 -8 0 -11 -888 -12 -2922 -1 -1608 -3
-2936 -5 -2952 -4 -40 -31 -66 -68 -66 -67 0 -175 44 -556 225 -217 103 -431
204 -475 225 -44 21 -125 59 -180 85 -160 75 -230 108 -395 185 -251 116 -340
172 -361 228 -5 14 -9 870 -9 2096 l0 2072 -132 76 c-73 42 -248 142 -388 223
-140 81 -295 170 -343 197 -49 28 -86 52 -84 54 2 2 28 -5 58 -17 50 -20 80
-31 242 -93 34 -13 104 -40 155 -60 50 -20 131 -51 180 -70 202 -78 280 -109
336 -132 l59 -24 930 456 c512 251 945 458 962 461 26 4 80 -19 296 -125 275
-135 650 -318 850 -416 64 -31 122 -56 129 -56 7 0 285 134 619 297 439 216
616 297 641 297 23 0 81 -22 170 -66 74 -36 243 -119 375 -183 263 -128 514
-251 875 -428 129 -63 292 -142 362 -176 l127 -62 548 221 c301 121 543 216
538 211 -6 -4 -237 -138 -515 -296 -278 -159 -506 -289 -508 -291 -2 -1 -3
-926 -2 -2056 0 -2276 5 -2116 -66 -2189 -20 -20 -66 -51 -103 -67 -36 -16
-106 -48 -156 -70 -49 -22 -137 -63 -195 -90 -58 -27 -193 -91 -300 -142 -107
-51 -260 -123 -340 -160 -80 -38 -203 -96 -275 -130 -71 -34 -150 -71 -175
-82 -25 -11 -106 -50 -180 -85 -149 -71 -175 -74 -227 -28 l-28 23 -5 2954 -5
2955 -78 -38 c-44 -20 -116 -54 -160 -74 -113 -53 -521 -243 -642 -300 -55
-26 -133 -62 -172 -81 l-73 -33 0 -3675 c0 -2021 3 -3677 8 -3679 4 -3 987
472 2185 1055 l2177 1061 0 2806 0 2807 -142 69 c-79 38 -334 163 -568 278
-234 115 -515 253 -625 307 -197 96 -475 233 -1110 545 -590 290 -686 335
-714 335 -28 0 -144 -55 -826 -390 -192 -94 -370 -180 -395 -191 l-46 -20
-279 137 c-154 75 -338 165 -410 199 -71 35 -224 108 -338 164 -135 65 -220
101 -240 100 -19 0 -108 -37 -222 -93z"/>
<path d="M3879 8552 c-108 -53 -290 -143 -405 -199 -115 -56 -344 -168 -509
-248 -165 -81 -365 -179 -445 -217 -80 -39 -148 -75 -152 -81 -9 -14 -11
-3927 -2 -3927 7 0 771 391 934 478 47 24 81 40 75 35 -5 -6 -134 -95 -285
-199 -151 -103 -279 -192 -285 -197 -5 -4 -38 -27 -72 -50 -238 -161 -293
-201 -293 -213 0 -8 4 -14 9 -14 6 0 77 -32 158 -71 81 -39 198 -95 258 -124
217 -104 382 -183 485 -233 210 -100 318 -151 440 -210 221 -106 278 -132 284
-132 3 0 6 279 6 619 l0 619 -256 148 c-171 99 -258 154 -262 168 -4 12 -6
633 -4 1381 l3 1360 259 134 260 134 0 569 c0 312 -1 568 -2 567 -2 0 -91 -44
-199 -97z"/>
<path d="M6790 8073 l1 -568 72 -35 c40 -20 156 -78 259 -130 l187 -95 1 -495
c0 -272 3 -900 6 -1395 l7 -901 -267 -131 -266 -132 0 -621 c0 -341 3 -620 6
-620 13 0 1594 784 1594 790 0 4 -51 41 -112 83 -62 41 -180 121 -263 178 -82
56 -233 158 -335 227 -162 109 -229 157 -195 140 6 -3 60 -29 120 -58 111 -53
290 -139 568 -274 224 -109 325 -156 331 -156 3 0 6 887 6 1971 l0 1970 -177
86 c-98 47 -232 111 -298 143 -66 32 -196 95 -290 140 -93 45 -215 104 -270
130 -55 26 -185 89 -290 140 -273 133 -374 180 -385 180 -6 0 -10 -211 -10
-567z"/>
</g>
</svg>
